<svg fill="#606060" height="32" width="32" style="height:50px;width:50px;" viewBox="0 0 100 100" class="rmq-a1908d06 rmq-37ccdca3" data-radium="true" data-reactid="63" xmlns="http://www.w3.org/2000/svg" xmlns:svg="http://www.w3.org/2000/svg">
  <path d="M57.8 35c-3.8-3.8-8.2-2-8.2-2l18 18.3-18 18.3s4.9 1.4 8.1-1.8l14.1-14.4c1.1-1.1 1-3.1-.1-4.2L57.8 35z" data-reactid="64"></path>
  <path d="M43 35c-3.8-3.8-8.2-2-8.2-2l18 18.3-18 18.3s4.9 1.4 8.1-1.8L57 53.4c1.1-1.1 1-3.1-.1-4.2L43 35z" data-reactid="65"></path>
  <path d="M50.4 5.9c-25 0-45.3 20.3-45.3 45.3 0 25 20.3 45.3 45.3 45.3 25 0 45.3-20.3 45.3-45.3 0-25-20.3-45.3-45.3-45.3zm0 86.2c-22.6 0-40.9-18.4-40.9-40.9s18.4-40.9 40.9-40.9c22.6 0 40.9 18.4 40.9 40.9S73 92.1 50.4 92.1z" data-reactid="66"></path>
</svg>