<svg xmlns="http://www.w3.org/2000/svg" width="18" height="18" fill="#fff" viewBox="0 0 18.027 8.001">
  <path fill-rule="evenodd" d="M4.667.336a1.15 1.15 0 0 0-1.624 0L.336 3.043a1.128 1.128 0 0 0-.308.958c-.044.341.046.696.308.958l2.707 2.707a1.15 1.15 0 0 0 1.624-1.624l-2.04-2.04 2.04-2.04a1.152 1.152 0 0 0 0-1.626zM17.691 3.043L14.984.336A1.15 1.15 0 0 0 13.36 1.96L15.4 4l-2.04 2.04a1.15 1.15 0 0 0 1.624 1.624l2.707-2.707c.262-.262.352-.616.308-.958a1.126 1.126 0 0 0-.308-.956z">
  </path>
</svg>