<svg fill="#fff" height="32" width="32" style="height:14px;width:14px;fill:#B3B3B3;margin-right:5px;" viewBox="0 0 23 25" data-radium="true" data-reactid="148" xmlns="http://www.w3.org/2000/svg" xmlns:svg="http://www.w3.org/2000/svg">
  <title data-reactid="149">Group 4</title>
  <g data-radium="true" data-reactid="150">
    <path d="M10.642 11.682a.556.556 0 1 0 1.112 0c0-.651.232-1.284.652-1.782.934-1.107 1.634-2.308 2.077-3.568a.557.557 0 0 0-.525-.741H8.437a.557.557 0 0 0-.525.74C8.356 7.593 9.055 8.794 9.989 9.9a2.77 2.77 0 0 1 .653 1.782zM11.754 13.911a.556.556 0 0 0-1.112 0c0 .804-.48 1.598-1.35 2.242-1.862 1.375-3.256 2.868-4.142 4.438a.552.552 0 0 0 .005.553.554.554 0 0 0 .48.276h11.127a.556.556 0 0 0 .484-.83c-.886-1.57-2.28-3.062-4.14-4.437-.872-.644-1.351-1.438-1.352-2.242z" data-reactid="151"></path><path d="M20.933 22.255h-.332c-.383-4.33-2.918-7.654-4.889-10.015 1.971-2.36 4.506-5.685 4.89-10.014h.332a1.113 1.113 0 0 0 0-2.226H1.462a1.113 1.113 0 0 0 0 2.226h.333c.383 4.33 2.917 7.654 4.888 10.014-1.97 2.36-4.505 5.684-4.889 10.015h-.332a1.112 1.112 0 1 0 0 2.225h19.472a1.113 1.113 0 1 0 0-2.225zm-16.908 0c.418-3.912 2.961-6.925 4.862-9.176l.102-.12c.35-.414.35-1.02 0-1.435l-.102-.12c-1.9-2.251-4.444-5.264-4.862-9.176h14.346c-.418 3.912-2.963 6.925-4.863 9.176l-.1.12c-.35.414-.35 1.02 0 1.435l.101.12c1.9 2.251 4.444 5.264 4.862 9.176H4.025z" data-reactid="152">
    </path>
  </g>
</svg>